<mxfile host="65bd71144e" modified="2020-10-23T10:38:38.705Z" agent="5.0 (Windows NT 10.0; Win64; x64) AppleWebKit/537.36 (KHTML, like Gecko) Code/1.50.1 Chrome/83.0.4103.122 Electron/9.2.1 Safari/537.36" etag="dn5wYYJ-lX3CLtTTb2zj" version="13.6.5">
    <diagram id="LFoi05Cg6cixM9IcLLpR" name="Page-1">
        <mxGraphModel dx="213" dy="371" grid="1" gridSize="10" guides="1" tooltips="1" connect="1" arrows="1" fold="1" page="1" pageScale="1" pageWidth="850" pageHeight="1100" math="0" shadow="0">
            <root>
                <mxCell id="0"/>
                <mxCell id="1" parent="0"/>
                <mxCell id="Bc8YqQen9oYHY0bD3Fvg-6" style="rounded=0;orthogonalLoop=1;jettySize=auto;html=1;exitX=1;exitY=0.5;exitDx=0;exitDy=0;entryX=0.013;entryY=0.706;entryDx=0;entryDy=0;entryPerimeter=0;" parent="1" source="Bc8YqQen9oYHY0bD3Fvg-1" target="Bc8YqQen9oYHY0bD3Fvg-3" edge="1">
                    <mxGeometry relative="1" as="geometry"/>
                </mxCell>
                <mxCell id="Bc8YqQen9oYHY0bD3Fvg-1" value="OWM_API_key.h&lt;br&gt;api:key : String" style="html=1;" parent="1" vertex="1">
                    <mxGeometry x="200" y="200" width="110" height="50" as="geometry"/>
                </mxCell>
                <mxCell id="Bc8YqQen9oYHY0bD3Fvg-2" value="Weather" style="swimlane;fontStyle=1;align=center;verticalAlign=top;childLayout=stackLayout;horizontal=1;startSize=26;horizontalStack=0;resizeParent=1;resizeParentMax=0;resizeLast=0;collapsible=1;marginBottom=0;" parent="1" vertex="1">
                    <mxGeometry x="380" y="180" width="160" height="120" as="geometry"/>
                </mxCell>
                <mxCell id="Bc8YqQen9oYHY0bD3Fvg-3" value="+ cityName: String&#10;- apiKey : String" style="text;strokeColor=none;fillColor=none;align=left;verticalAlign=top;spacingLeft=4;spacingRight=4;overflow=hidden;rotatable=0;points=[[0,0.5],[1,0.5]];portConstraint=eastwest;" parent="Bc8YqQen9oYHY0bD3Fvg-2" vertex="1">
                    <mxGeometry y="26" width="160" height="34" as="geometry"/>
                </mxCell>
                <mxCell id="Bc8YqQen9oYHY0bD3Fvg-4" value="" style="line;strokeWidth=1;fillColor=none;align=left;verticalAlign=middle;spacingTop=-1;spacingLeft=3;spacingRight=3;rotatable=0;labelPosition=right;points=[];portConstraint=eastwest;" parent="Bc8YqQen9oYHY0bD3Fvg-2" vertex="1">
                    <mxGeometry y="60" width="160" height="8" as="geometry"/>
                </mxCell>
                <mxCell id="Bc8YqQen9oYHY0bD3Fvg-5" value="+ getWeatherReport() : void" style="text;strokeColor=none;fillColor=none;align=left;verticalAlign=top;spacingLeft=4;spacingRight=4;overflow=hidden;rotatable=0;points=[[0,0.5],[1,0.5]];portConstraint=eastwest;" parent="Bc8YqQen9oYHY0bD3Fvg-2" vertex="1">
                    <mxGeometry y="68" width="160" height="52" as="geometry"/>
                </mxCell>
                <mxCell id="Bc8YqQen9oYHY0bD3Fvg-7" value="" style="endArrow=none;dashed=1;html=1;" parent="1" edge="1">
                    <mxGeometry width="50" height="50" relative="1" as="geometry">
                        <mxPoint x="340" y="320" as="sourcePoint"/>
                        <mxPoint x="340" y="80" as="targetPoint"/>
                    </mxGeometry>
                </mxCell>
                <mxCell id="Bc8YqQen9oYHY0bD3Fvg-8" value="Not under VCS" style="text;html=1;align=center;verticalAlign=middle;resizable=0;points=[];autosize=1;" parent="1" vertex="1">
                    <mxGeometry x="200" y="90" width="100" height="20" as="geometry"/>
                </mxCell>
                <mxCell id="Bc8YqQen9oYHY0bD3Fvg-9" value="kept in VCS" style="text;html=1;align=center;verticalAlign=middle;resizable=0;points=[];autosize=1;" parent="1" vertex="1">
                    <mxGeometry x="410" y="90" width="80" height="20" as="geometry"/>
                </mxCell>
            </root>
        </mxGraphModel>
    </diagram>
</mxfile>